# xmcd CD database file
#
# Track frame offsets:
#	150
#	15974
#	30221
#	45087
#	85806
#	100566
#	117896
#	138522
#	155276
#	174434
#
# Disc length: 2553 seconds
#
# Revision: 0
# Processed by: cddbd v1.5.2PL0 Copyright (c) Steve Scherf et al.
# Submitted via: CDex 1.70beta2
#
DISCID=5c09f70a
DTITLE=The Blues Beers - GamblingAndLiving
DYEAR=2010
DGENRE=Blues
TTITLE0=Left my heart away
TTITLE1=13th of may
TTITLE2=Gambling and living
TTITLE3=I'm not the girl
TTITLE4=Dark wine
TTITLE5=Free
TTITLE6=Texas way
TTITLE7=Blues and beers
TTITLE8=I'm done with you
TTITLE9=Special woman
EXTD=YEAR: 2010
EXTT0=
EXTT1=
EXTT2=
EXTT3=
EXTT4=
EXTT5=
EXTT6=
EXTT7=
EXTT8=
EXTT9=
PLAYORDER=
